<svg version="1.1" id="Layer_1" xmlns:x="ns_extend;" xmlns:i="ns_ai;" xmlns:graph="ns_graphs;" xmlns="http://www.w3.org/2000/svg" xmlns:xlink="http://www.w3.org/1999/xlink" x="0px" y="0px" viewBox="0 0 53.9 72" style="enable-background:new 0 0 53.9 72;" xml:space="preserve">
 <style type="text/css">
  .st0{fill:#FF6600;}
	.st1{opacity:0.85;}
	.st2{clip-path:url(#SVGID_2_);}
	.st3{clip-path:url(#SVGID_4_);fill:url(#SVGID_5_);}
	.st4{clip-path:url(#SVGID_7_);fill:url(#SVGID_8_);}
	.st5{fill-rule:evenodd;clip-rule:evenodd;fill:#FFFFFF;}
	.st6{clip-path:url(#SVGID_10_);fill:url(#SVGID_11_);}
	.st7{opacity:0.66;enable-background:new    ;}
	.st8{clip-path:url(#SVGID_13_);fill:#3D2A4F;}
	.st9{clip-path:url(#SVGID_15_);fill:#3D2A4F;}
	.st10{clip-path:url(#SVGID_17_);fill:#3D2A4F;}
	.st11{fill:#FFA457;}
	.st12{fill:#0006AD;}
 </style>
 <metadata>
  <sfw xmlns="ns_sfw;">
   <slices>
   </slices>
   <sliceSourceBounds bottomLeftOrigin="true" height="89.7" width="72.2" x="152.2" y="-238.1">
   </sliceSourceBounds>
   <optimizationSettings>
    <targetSettings fileFormat="JPEGFormat" targetSettingsID="0">
     <JPEGFormat blurAmount="0" embedICCProfile="false" matteColor="#FFFFFF" noMatteColor="false" optimized="true" progressive="false" quality="60">
     </JPEGFormat>
    </targetSettings>
   </optimizationSettings>
  </sfw>
 </metadata>
 <g>
  <path class="st0" d="M49.4,45.9c1.2,1.2,2.1,2.4,2.7,3.7c2.1,4.3,1.3,8.9-2.9,13c-4.8,4.7-12.9,7.5-22.4,7.5S9.4,67.2,4.6,62.6
		c-4.2-4.1-4.9-8.8-2.9-13c0.6-1.3,1.6-2.6,2.7-3.7c-1.3,1.3-2.4,2.4-3.3,4.3c-2.1,4.1-1.4,9.9,2.9,14.1C8.9,69.1,16.6,72,27,72
		c10.5,0,18.1-3,22.8-7.7c4.6-4.6,4.8-10.7,2.9-14.3C51.9,48.6,50.8,47.2,49.4,45.9">
  </path>
  <g class="st1">
   <g>
    <defs>
     <rect id="SVGID_1_" y="45.8" width="53.9" height="26.2">
     </rect>
    </defs>
    <clipPath id="SVGID_2_">
     <use href="#SVGID_1_" style="overflow:visible;">
     </use>
    </clipPath>
    <g class="st2">
     <defs>
      <path id="SVGID_3_" d="M49.4,45.9c1.2,1.2,2.1,2.4,2.7,3.7c2.1,4.3,1.3,8.9-2.9,13c-4.8,4.7-12.9,7.5-22.4,7.5
						S9.4,67.2,4.6,62.6c-4.2-4.1-4.9-8.8-2.9-13c0.6-1.3,1.6-2.6,2.7-3.7c-1.3,1.3-2.4,2.4-3.3,4.3c-2.1,4.1-1.4,9.9,2.9,14.1
						C8.9,69.1,16.6,72,27,72c10.5,0,18.1-3,22.8-7.7c4.6-4.6,4.8-10.7,2.9-14.3C51.9,48.6,50.8,47.2,49.4,45.9">
      </path>
     </defs>
     <clipPath id="SVGID_4_">
      <use xlink:href="#SVGID_3_" style="overflow:visible;">
      </use>
     </clipPath>
     <linearGradient id="SVGID_5_" gradientUnits="userSpaceOnUse" x1="-512.9219" y1="352.5797" x2="-511.162" y2="352.5797" gradientTransform="matrix(21.3127 7.6526 7.6526 -21.3127 8237.2422 11490.167)">
      <stop offset="0" style="stop-color:#FF6600">
      </stop>
      <stop offset="0.1519" style="stop-color:#FA5C00">
      </stop>
      <stop offset="0.5665" style="stop-color:#98422B">
      </stop>
      <stop offset="0.8588" style="stop-color:#583145">
      </stop>
      <stop offset="1" style="stop-color:#3D2A4F">
      </stop>
     </linearGradient>
     <polygon class="st3" points="5.4,28.1 63,48.8 48.3,89.7 -9.3,69 				">
     </polygon>
    </g>
   </g>
  </g>
  <path class="st0" d="M41.7,41c-4.4-1.8-9.6-2.8-14.8-2.8s-10.4,1-14.8,2.7c-4.9,2-8.6,5-10.4,8.7c-2.1,4.3-1.3,8.9,2.9,13
		c4.8,4.7,12.9,7.6,22.3,7.6c9.4,0,17.6-2.9,22.4-7.5c4.2-4.1,5-8.8,2.9-13C50.3,45.9,46.6,43,41.7,41">
  </path>
  <g>
   <defs>
    <path id="SVGID_6_" d="M26.9,38.2c-5.2,0-10.4,1-14.8,2.7c-4.9,2-8.6,5-10.4,8.7c-2.1,4.3-1.3,8.9,2.9,13
				c0.3,0.3,0.6,0.6,0.9,0.8C23.1,62.4,32.3,52.1,27.8,43c-0.9-1.8-0.7-3.4-0.5-4.8H26.9z">
    </path>
   </defs>
   <clipPath id="SVGID_7_">
    <use xlink:href="#SVGID_6_" style="overflow:visible;">
    </use>
   </clipPath>
   <linearGradient id="SVGID_8_" gradientUnits="userSpaceOnUse" x1="-511.8853" y1="366.9729" x2="-510.1255" y2="366.9729" gradientTransform="matrix(18.9176 -3.3285 -3.3285 -18.9176 10900.6572 5292.8008)">
    <stop offset="0" style="stop-color:#FFC87D">
    </stop>
    <stop offset="1" style="stop-color:#FF6600">
    </stop>
   </linearGradient>
   <polygon class="st4" points="-4.8,38.9 31.3,32.6 36.6,62.7 0.5,69 		">
   </polygon>
  </g>
  <path class="st5" d="M15.6,43.3c3.3,0.8,6.4,1.8,9.6,3c0.6-1.9,1.3-3.7,2.1-5.6c0.7,1.8,1.4,3.7,2.1,5.6c3.2-1.2,6.2-2.1,9.5-3
		c-2.3,1.4-4.3,3-6.4,4.6c4.3,0.6,8.3,1.3,12.6,2.2c-4.2-0.1-8.2,0.1-12.5,0.3c3,2.5,5.5,5,8.3,7.8c-3.8-2.2-7.4-4-11.3-5.9
		c-0.8,3.3-1.5,6.7-2.2,10c-0.7-3.3-1.3-6.5-2.1-9.8c-4,1.9-7.5,3.6-11.5,5.8c2.8-2.7,5.4-5.1,8.4-7.7c-4.2-0.3-8.3-0.3-12.6-0.4
		c4.3-0.9,8.4-1.6,12.8-2.2C20,46.3,17.9,44.7,15.6,43.3 M27.2,49.1v-7.3c-0.7,2.1-1.4,4.1-2,6.2C25.8,48.3,26.5,48.7,27.2,49.1
		 M17.5,44.1c2.6,1.2,5.2,2.4,7.7,3.9c-0.6,0.1-1.2,0.1-1.8,0.2C21.4,46.7,19.5,45.3,17.5,44.1 M27.2,49.1c5.1,0,10.1,0.3,15.1,0.8
		c-4.4-0.8-8.7-1.4-13.1-1.9C28.5,48.3,27.8,48.7,27.2,49.1 M36.9,44.1c-2.6,1.2-5.2,2.4-7.7,3.9c-0.1-0.3-0.2-0.7-0.3-1
		C31.5,45.9,34.2,44.9,36.9,44.1 M26.9,49.1c0.1,3.5,0.2,7.3,0.3,10.7c0.6-3.2,1.4-6.3,2.1-9.5C28.6,49.9,27.6,49.5,26.9,49.1
		 M38.3,56.4c-3-2.1-6-4.2-9-6.1c0.6-0.1,1.3-0.1,1.9-0.2C33.6,52.2,36,54.3,38.3,56.4 M27.2,49.1c-5.1,0.1-9,0.3-14,0.7
		c4.3,0,7.6,0.2,11.9,0.5C25.8,49.9,26.5,49.5,27.2,49.1 M16.1,56.4c3-2.1,6-4.2,9.1-6.1c0.1,0.4,0.2,0.8,0.3,1.2
		C22.2,53.1,19.1,54.7,16.1,56.4">
  </path>
  <path class="st5" d="M27.7,69.2c-0.2,0.1-0.4,0.2-0.5,0.3c-0.2-0.1-0.4-0.2-0.5-0.3v-4.1c0.2-0.1,0.4-0.2,0.5-0.3
		c0.2,0.1,0.4,0.2,0.5,0.3V69.2z">
  </path>
  <path class="st5" d="M3.2,59.2c-0.1,0.2-0.2,0.3-0.3,0.5c0.2,0.1,0.4,0.2,0.6,0.2c1.4-0.7,2.9-1.5,4.3-2.3c0.1-0.2,0.1-0.3,0.2-0.5
		c-0.2-0.1-0.3-0.1-0.4-0.1C6.1,57.7,4.7,58.5,3.2,59.2">
  </path>
  <path class="st5" d="M2.2,50.8c-0.1,0.1-0.3,0.2-0.4,0.3c0.1,0.1,0.2,0.2,0.2,0.3C3.3,51.2,4.7,51,6,50.9c0.1-0.1,0.3-0.3,0.4-0.4
		c-0.1-0.1-0.2-0.2-0.2-0.3C4.9,50.4,3.5,50.6,2.2,50.8">
  </path>
  <path class="st5" d="M7.3,44c-0.2,0.1-0.3,0.1-0.4,0.2c0,0.1,0.1,0.2,0.1,0.3c1,0.2,2,0.3,3,0.5c0.1-0.1,0.3-0.2,0.4-0.2
		c0-0.1-0.1-0.2-0.1-0.3C9.3,44.3,8.3,44.1,7.3,44">
  </path>
  <path class="st5" d="M37.6,39.8H38c0.1,0.1,0.1,0.1,0.2,0.2c-0.5,0.3-1,0.7-1.5,1h-0.4c-0.1-0.1-0.1-0.1-0.2-0.2
		C36.6,40.4,37.1,40.1,37.6,39.8">
  </path>
  <path class="st5" d="M26.8,38.3c0.1-0.1,0.2-0.1,0.3-0.1c0.1,0.1,0.2,0.1,0.3,0.1v1.2c-0.1,0.1-0.2,0.1-0.3,0.1
		c-0.1-0.1-0.2-0.1-0.3-0.1C26.8,39.2,26.8,38.7,26.8,38.3">
  </path>
  <path class="st5" d="M16,40c0.1-0.1,0.2-0.2,0.2-0.2h0.4c0.5,0.3,1.1,0.7,1.5,1c-0.1,0.1-0.1,0.1-0.2,0.2c-0.1,0-0.3,0.1-0.4,0.1
		C17,40.6,16.5,40.3,16,40">
  </path>
  <path class="st5" d="M12.8,66.7c-0.2,0.1-0.5,0.1-0.7,0.1c-0.1-0.2-0.2-0.3-0.2-0.4c1-1.2,2-2.4,3.1-3.6c0.2-0.1,0.5-0.1,0.6-0.1
		c0.1,0.1,0.2,0.3,0.2,0.5C14.8,64.3,13.8,65.5,12.8,66.7">
  </path>
  <path class="st5" d="M50.8,59.2c0.1,0.2,0.2,0.3,0.2,0.5c-0.2,0.1-0.4,0.2-0.6,0.2c-1.4-0.7-2.9-1.5-4.3-2.3
		c-0.1-0.2-0.1-0.3-0.2-0.5c0.2-0.1,0.3-0.1,0.4-0.1C47.9,57.7,49.4,58.5,50.8,59.2">
  </path>
  <path class="st5" d="M51.8,50.8c0.1,0.1,0.3,0.2,0.4,0.3c-0.1,0.1-0.2,0.2-0.2,0.3c-1.4-0.2-2.7-0.4-4.1-0.5
		c-0.1-0.1-0.3-0.3-0.4-0.4c0.1-0.1,0.2-0.2,0.2-0.3C49.1,50.5,50.5,50.6,51.8,50.8">
  </path>
  <path class="st5" d="M46.7,44c0.2,0.1,0.3,0.1,0.4,0.2c0,0.1-0.1,0.2-0.1,0.3c-1,0.2-2,0.3-3,0.5c-0.1-0.1-0.3-0.2-0.4-0.2
		c0-0.1,0.1-0.2,0.1-0.3C44.7,44.3,45.7,44.1,46.7,44">
  </path>
  <path class="st5" d="M41.2,66.7c0.2,0.1,0.5,0.1,0.7,0.1c0.1-0.2,0.1-0.3,0.2-0.4c-1-1.2-2-2.4-3.1-3.6c-0.2-0.1-0.5-0.1-0.6-0.1
		c-0.1,0.1-0.2,0.3-0.2,0.5C39.2,64.3,40.2,65.5,41.2,66.7">
  </path>
  <g>
   <defs>
    <path id="SVGID_9_" d="M26.7,65.1v4.1l0.1-4c0.1-0.1,0.3-0.2,0.4-0.2c0.1,0.1,0.3,0.1,0.4,0.2l0.1,4v-4.1
				c-0.2-0.1-0.4-0.2-0.5-0.3C27,64.9,26.8,65,26.7,65.1 M38.1,63.1L38.1,63.1c0.1-0.1,0.2-0.2,0.2-0.3c0.2,0,0.4,0,0.6,0.1
				c1,1.2,2.4,2.9,3.1,3.6c0.1-0.1,0.1-0.1,0.1-0.2c-1-1.2-2-2.4-3.1-3.6c-0.2-0.1-0.5-0.1-0.6-0.1C38.3,62.8,38.2,63.1,38.1,63.1
				 M15,62.7c-1.1,1.2-2.1,2.4-3.1,3.6c0,0.1,0.1,0.1,0.1,0.2c0.6-0.8,2.1-2.4,3.1-3.6c0.2,0,0.4,0,0.6-0.1c0.1,0.1,0.1,0.3,0.2,0.3
				l0.1-0.1c0-0.1-0.2-0.3-0.2-0.5C15.4,62.7,15.2,62.7,15,62.7 M3.2,59.2c-0.1,0.2-0.2,0.3-0.3,0.5c0.1,0,0.1,0,0.1,0.1
				c0.1-0.1,0.1-0.2,0.2-0.3c1.4-0.8,2.8-1.5,4.3-2.2c0.1,0.1,0.3,0.1,0.4,0.1c0.1-0.1,0.1-0.2,0.1-0.3c-0.2-0.1-0.3-0.1-0.4-0.1
				C6.1,57.7,4.7,58.5,3.2,59.2 M46.1,57.1c0.1,0.1,0.1,0.2,0.1,0.3c0.1-0.1,0.3-0.1,0.4-0.1c1.4,0.7,2.8,1.5,4.2,2.2
				c0.1,0.1,0.1,0.2,0.2,0.3c0.1,0,0.1,0,0.1-0.1c-0.1-0.2-0.2-0.3-0.2-0.5c-1.4-0.7-2.9-1.5-4.3-2.2C46.4,57.1,46.2,57.1,46.1,57.1
				 M16.1,56.4v0.2c3.1-1.7,6.2-3.4,9.3-4.9v-0.2C22.2,53.1,19.1,54.7,16.1,56.4 M13.5,58.2c0.1-0.1,0.3-0.2,0.4-0.3
				c2.7-2.6,5.1-4.8,8-7.2v-0.2C19,53,16.3,55.5,13.5,58.2 M32.4,50.7c2.9,2.4,5.2,4.6,7.9,7.3c0.1,0.1,0.4,0.2,0.5,0.3
				c-2.9-2.9-5.4-5.2-8.2-7.7l-0.1-0.1V50.7z M47.6,50.6c0.1,0.1,0.1,0.1,0.1,0.1c0.1-0.1,0.1-0.1,0.2-0.1c1.3,0.1,2.6,0.2,3.9,0.4
				c0.1,0.1,0.3,0.2,0.4,0.3c0.1-0.1,0.1-0.1,0.1-0.1c-0.1-0.1-0.3-0.2-0.4-0.3c-1.3-0.2-2.7-0.4-4-0.5
				C47.7,50.4,47.7,50.5,47.6,50.6 M27.2,59.8v0.1c0.6-3.2,1.3-6.3,2.1-9.4c2.1,1.3,5.2,3.3,9,6.1v-0.2c-2.9-2.1-6-4.2-9-6.1
				C28.5,53.4,27.8,56.6,27.2,59.8 M2.2,50.7C2.1,50.8,2,50.9,1.8,51c0.1,0.1,0.1,0.1,0.1,0.1c0.1-0.1,0.3-0.2,0.4-0.3
				c1.3-0.1,2.6-0.3,3.9-0.4c0.1,0.1,0.1,0.1,0.2,0.1c0.1-0.1,0.1-0.1,0.1-0.1c-0.1-0.1-0.2-0.2-0.2-0.3C4.9,50.4,3.5,50.6,2.2,50.7
				 M13.2,49.9c4-0.1,7.9,0.2,11.8,0.5c0.1,0.1,0.1,0,0.2-0.1c-4-0.3-7.9-0.5-11.9-0.5V49.9z M27.2,49.2v-0.1V49.2z M27.2,49.1
				c0.1,0,0.1,0.1,0.1,0.1c0.1,0,0.1,0.1,0.1,0.1c5,0,9.9,0.3,14.9,0.8v-0.1C37.3,49.4,32.2,49.1,27.2,49.1z M27.2,49.1h0.2H27.2z
				 M27.1,49.1c-0.1,0-0.1,0.1-0.1,0.1c-0.6,0.4-1.2,0.7-1.8,1.1l0.1,0.1c0.7-0.4,1.4-0.8,2-1.2v-0.1V49
				C27.1,49.1,27.1,49.1,27.1,49.1 M32.3,48.1c4.1,0.5,7.9,1.2,11.9,2.1h0.7c-4.3-1-8.3-1.6-12.6-2.2V48.1z M22,48
				c-4.3,0.5-8.4,1.3-12.7,2.2H10c4.1-0.8,8-1.5,12.1-2.1v-0.2L22,48z M29.2,47.9C29.1,47.9,29.1,47.9,29.2,47.9 M28.9,47
				c0.1,0.3,0.2,0.6,0.3,0.9c-0.1-0.3-0.2-0.7-0.3-1V47z M29.2,47.9h0.2c2.4-1.4,4.9-2.6,7.5-3.7v-0.1
				C34.2,45.2,31.7,46.6,29.2,47.9 M17.4,44.2c2,1.3,3.9,2.6,5.8,4.1c0.6-0.1,1.2-0.2,1.8-0.2c0.6,0.3,1.2,0.6,1.8,1h0.3
				c-0.6-0.3-1.3-0.7-2-1.1h-0.2c-0.6,0.1-1.1,0.1-1.7,0.2c-1.9-1.4-3.8-2.8-5.8-4.1V44.2z M43.7,44.5c0,0.1-0.1,0.2-0.1,0.3
				c0,0,2-0.4,3-0.5c0.1,0,0.3,0.1,0.4,0.2c0-0.1,0-0.1,0.1-0.2c-0.2-0.1-0.3-0.1-0.4-0.2C45.7,44.2,44.7,44.3,43.7,44.5 M6.9,44.1
				c0,0.1,0,0.1,0.1,0.2c0.1-0.1,0.3-0.1,0.4-0.2c1,0.2,3,0.5,3,0.5c0-0.1-0.1-0.2-0.1-0.3c-1-0.2-2-0.4-3-0.5
				C7.2,44,7.1,44.1,6.9,44.1 M25.2,46.3C25.2,46.3,25.2,46.3,25.2,46.3c0.3-0.9,0.6-1.9,1-2.8C25.8,44.4,25.5,45.3,25.2,46.3
				 M29.3,46.3c0,0,0,0.1,0,0.1c3-1.1,6-2.1,9.1-2.9c0.1-0.1,0.2-0.2,0.3-0.2C35.5,44.2,32.5,45.1,29.3,46.3 M15.9,43.5
				c3.1,0.8,6.1,1.8,9.2,2.9c0,0,0-0.1,0-0.1c-3.2-1.2-6.3-2.2-9.5-3C15.7,43.3,15.8,43.4,15.9,43.5 M27.3,40.8
				c0.7,1.8,1.4,3.6,2,5.5c0,0,0,0,0,0C28.7,44.4,28.1,42.6,27.3,40.8C27.3,40.8,27.3,40.8,27.3,40.8 M26.2,43.5
				c0.3-0.9,0.7-1.8,1.1-2.7c0,0,0-0.1,0-0.1C26.8,41.6,26.5,42.6,26.2,43.5 M8,50.3c1.7-7.8,12.4-10,19.1-10s17.4,2.3,19.1,10
				c2.1,9.6-12.2,13.1-19.1,13.1C20.1,63.4,5.9,59.9,8,50.3 M7.2,50.3C5,60.3,19.9,64,27.1,64s22.1-3.7,19.8-13.7
				C45.1,42.3,34.1,40,27.1,40C20.1,40,9,42.3,7.2,50.3 M16.2,39.8C16.2,39.9,16.1,40,16,40c0.1,0.1,0.1,0.1,0.1,0.1
				s0.1-0.1,0.1-0.1c0.1,0,0.2,0,0.4,0c0.5,0.3,1,0.6,1.4,1c0.1-0.1,0.1-0.1,0.1-0.1c-0.5-0.4-1-0.7-1.5-1H16.2z M37.6,39.8
				c-0.5,0.3-1.1,0.7-1.5,1c0.1,0.1,0.1,0.1,0.1,0.1c0.5-0.3,0.9-0.6,1.4-1C37.7,40,37.9,40,38,40c0.1,0,0.1-0.1,0.2-0.1
				c-0.1-0.1-0.1-0.1-0.2-0.2H37.6z M26.8,38.4v0.2c0.1-0.1,0.2-0.1,0.3-0.1c0.1,0.1,0.2,0.1,0.3,0.1v-0.2c-0.1-0.1-0.2-0.1-0.3-0.1
				C27,38.3,26.9,38.3,26.8,38.4">
    </path>
   </defs>
   <clipPath id="SVGID_10_">
    <use xlink:href="#SVGID_9_" style="overflow:visible;">
    </use>
   </clipPath>
   <linearGradient id="SVGID_11_" gradientUnits="userSpaceOnUse" x1="-505.8418" y1="358.3276" x2="-504.0815" y2="358.3276" gradientTransform="matrix(28.6715 1.049622e-02 1.049622e-02 -28.6715 14501.2803 10332.8301)">
    <stop offset="0" style="stop-color:#C46500">
    </stop>
    <stop offset="1" style="stop-color:#910000">
    </stop>
   </linearGradient>
   <rect x="1.8" y="38.3" class="st6" width="50.5" height="30.9">
   </rect>
  </g>
  <path class="st5" d="M7.3,50.6c1.8-8,12.5-10.4,19.8-10.4c7.4,0,18.1,2.4,19.8,10.5c2.2,10-12.6,13.7-19.8,13.7
		C19.9,64.2,5.1,60.5,7.3,50.6 M8,50.5c1.7-7.7,12.4-10,19.1-10c6.7,0,17.4,2.3,19.1,10c2.1,9.6-12.2,13.1-19.1,13.1
		C20.2,63.7,5.9,60.1,8,50.5">
  </path>
  <g class="st7">
   <g>
    <defs>
     <rect id="SVGID_12_" x="26" y="43.2" width="27.1" height="16.3">
     </rect>
    </defs>
    <clipPath id="SVGID_13_">
     <use xlink:href="#SVGID_12_" style="overflow:visible;">
     </use>
    </clipPath>
    <path class="st8" d="M50.8,52.3l-3.3-0.5l-0.4-0.1c-0.5-0.1-1.6-0.7-2.1-1.4c-0.5-0.7-1.5-1.9-2.2-2.6c-0.8-1.1-2.7-2-3-2.4
				c-0.3-0.4-0.7-1.2-0.8-1.5s-0.4-0.5-0.9-0.5c-0.5,0.1-0.5,0.2-1,0.2c-0.4,0.1-1-0.1-1-0.1c-0.3-0.1-0.4-0.1-0.6-0.1
				c-0.3,0.4-0.6,0.7-1.6,0.7h-0.2c0.1,0.2,1,0.3,1.2,0.3c0.2,0,1,0.2,1.2,0.3c0.4,0.1,0.3-0.1,1,0.3c1.1,0.6,2.6,2.3,2.9,3.7
				c0.2,0.8,1.5,2.1,1.7,2.8c-1.8-0.2-4.2-1.3-4.2-1.3l-0.3-0.2c0,0-1.1-0.5-2.7-0.6c-3.1-0.3-4.3-0.7-4.6-0.8
				c-0.6-0.2-0.6-0.3-1.1-0.4h-0.3c-0.1,0.1-0.2,0.2-0.3,0.4c-0.6,0.6-1,1-1.5,1.7c-0.1,0.2-0.4,0.3-0.6,0.4
				c0.6-0.2,1.7-0.5,1.7-0.5c1.1-0.2,2.8,0.3,2.8,0.3c0.6,0.1,1.6,0.5,1.6,0.5s4.4,1.4,5.5,2.2c0.7,0.5,4.4,1.9,5.4,2.3
				c1,0.3,3.4,1.6,3.4,1.6c0.6,0.5,4.2,2.1,5.2,2.4c1.3-2.2,1.7-4.4,1.4-6.7L50.8,52.3z">
    </path>
   </g>
  </g>
  <g class="st7">
   <g>
    <defs>
     <rect id="SVGID_14_" x="47.6" y="48.6" width="4.9" height="1.9">
     </rect>
    </defs>
    <clipPath id="SVGID_15_">
     <use xlink:href="#SVGID_14_" style="overflow:visible;">
     </use>
    </clipPath>
    <path class="st9" d="M49.2,48.6c-0.3,0-0.7,0.1-0.7,0.1l-0.9,0.5c-0.1,0.2,0.3,0.4,0.3,0.4s1.1,0.1,1.1,0.4
				c0.8,0.4,2.6,0.5,3.5,0.5c-0.1-0.3-0.3-0.6-0.4-0.9c-0.2-0.3-0.3-0.6-0.5-0.8C51.6,48.7,50.9,48.5,49.2,48.6">
    </path>
   </g>
  </g>
  <g class="st7">
   <g>
    <defs>
     <rect id="SVGID_16_" x="40.9" y="59.2" width="9.7" height="3.8">
     </rect>
    </defs>
    <clipPath id="SVGID_17_">
     <use xlink:href="#SVGID_16_" style="overflow:visible;">
     </use>
    </clipPath>
    <path class="st10" d="M42.6,59.4c0,0-0.2-0.3-1.4-0.3c-0.7,0,0.3,1.7,0.3,1.7c0.6,0.4,3,1.1,3.5,1.2c0.5,0.1,2.1,0.6,2.1,0.6
				s0.8,0.1,1.7,0.4c0.2-0.1,0.3-0.3,0.4-0.4c0.5-0.5,0.9-1,1.4-1.5c-2-0.1-4.8-0.1-6.9-1.2C43.5,59.3,42.6,59.4,42.6,59.4">
    </path>
   </g>
  </g>
  <path class="st11" d="M36.6,28.4c0,0-0.6-0.6-0.7-0.6c-0.1-0.2,0.2-0.5,0.3-0.8c-0.1-0.1-0.2-0.1-0.2-0.1c-0.2-0.6-0.3-1.7,0-2.3
		c0.2-0.3,0.3-0.6,0.2-1c-0.5-1.8-1.6-3.5-2.4-5.2c-0.2-0.5-0.2-0.8-0.2-1.3c-0.6-0.6-1.3-2.3-1.6-3.4c-0.7,1.7-1.2,3.7-1.2,4.2
		c0,2,2,2.9,1.3,6.1c-0.1,0.6-0.4,1.5-0.6,2.4c0.4,2.3,0.4,3.9,1,6.5c0.8,0.8,1.5,1.9,1.9,3.3c0.2,0.8,1,2.8,1.8,3.1
		c0.6,0.2-1.9,0.6-2.6-0.3c-0.7-0.8-1.8-1.5-2.4-2.4c-0.4-0.7-1.1-2.2-1.5-3l-0.5,2.7c0.7,3,0.3,3.6-0.4,6c-0.3,1.1-2.4-3.8-2.4-4.2
		c0-1.1-0.1-1.4-0.3-2.4c-0.4-0.8-0.4-2.1-0.3-3c0.1-1.5,0.1-4.4,0.2-5.2c-0.5-1.3-1.9-3.6-2-5c-0.2-2.1,0.2-4.1-0.2-6.2
		c-0.4,1-0.7,2.3-1.5,3.1c-1.2,1.2-2.3,2.5-3.4,3.7c-0.4,0.5-0.1,0.8-0.6,1.6c-0.6,0.8-0.3,0.5-0.4,1.3c0,0.2-0.1,0.3-0.2,0.3
		c-0.3,0.3-0.6,0.5-1.1,0.3c-0.9-0.4-1-1.1-1-2c-0.1-1.6,1.1-1.7,1.7-2.6c1.3-1.9,2-5.1,3.4-6.5c0.1-0.3,0.4-1.3,1.1-2.9
		c0-1.9,0.5-3.6,2.4-4.3C25,8.2,26.1,8.1,26.1,7c0-0.1,0-0.5-0.1-0.6c-0.3-0.3-0.5-0.3-0.7-0.4c-0.3-0.4-0.6-3-0.5-3.2
		c0.5-2.2,1.5-3,2.9-2.9c1.6,0.1,2.9,0.8,2.7,3c-0.1,1.7-1.8,3.9,0.8,4.8c1,0.3,1.2,0.1,2.1,1c1,1,1.2,2.7,1.4,4.3l1,2.3
		c1.8,3.1,1.2,4,1.8,7.2c0.2,0.8,0.5,1.5,0.5,3.3C38.2,26.5,37.5,28.4,36.6,28.4">
  </path>
  <path class="st12" d="M17.6,26.1c0.1-0.8-0.1-0.7,0.5-1.5c0.5-0.7,0.3-1.1,0.7-1.7c1.1-1.3,2.1-2.6,3.2-3.9
		c0.8-0.8,1.8-3.5,2.1-4.4c0.1-0.2,0.1-0.2,0.2-0.1c0.2,1.8,0.4,3.3,0.4,5.1c-0.2,3.7-0.1,3.3,1.5,6.8c0.1-1.4,0.5-3.4,1.3-4.1
		c-1,3.6-1,8.8-1.1,10.4c-0.1,0.8-0.3,2.1,0.1,2.9c0.1,0.5,0.2,1.3,0.2,1.8v6.4L26,46.6c-0.2,0.8-1.2,2.2-2,2.6
		c-0.3,0.1-0.8,0.4-0.8,0.7c0,0.4,2.9,1.3,3.5,0.3c0.5-0.7,0.9-1.2,1.5-1.7c0.9-0.8-0.1-1.7,0-2.9c0.2-2,1.1-3.7,1.4-5.7
		c0.2-1.2,0.2-2.2-0.4-3.5l0.4-3.6c0.4,0.6,0.8,1.6,1.2,2.5c0.7,1.5,0.7,1.6,2,2.9c0.4,0.4,0.8,0.9,1.2,1.4c0.6,0.9,0.9,1.8,0.9,2.9
		c-0.4,0.8-0.6,0.7-1.2,1.2c0,0.1-0.2,0.5,0.4,0.5c1.8,0,1.6-1,2.3-2.2c0.5-0.8,1.7-2.1,0.3-2.5c-0.4-0.1-0.8-0.4-1.1-0.8
		c-1-1.6-1-1.6-1.5-3.1c-0.3-0.9-1-1.6-1.7-2.3c-0.5-1.1-0.6-1.7-0.8-2.9c-0.2-1.5-0.3-2.5-0.6-4.1c0.7-2.9,1.1-3.5-0.1-6.2
		c-0.3-0.6-0.4-1.3-0.4-2.1c0-0.9,0.5-3,1-4c0.2-0.4,0.4-0.8,0.7-1c0.3,1.1,1.3,3.4,1.9,4c0.1,0.4,0,0.9,0.2,1.3
		c0.7,1.8,1.8,3.4,2.4,5.3c0.2,0.6-0.1,1-0.3,1.5c-0.1,0.3-0.1,1,0.1,1.5l0.3,0.2c-0.1,0.2-0.2,0.6-0.3,0.8c0.1,0.3,0.4,0.4,0.4,0.4
		c0.4-0.1,1-1.6,1-2.2c-0.1-1.8-0.4-2.6-0.6-3.2c-0.6-3.1-0.3-4-2-7l-1-2.4C34.1,11.9,33.6,9,32,8.6c-0.3-0.1-0.5-0.1-1-0.2
		c-2.1-0.7-2.1-2.3-1.5-4C30,2.8,30.1,1,27.8,0.7c-1.4-0.1-1.8,1-2.2,2.3c0,0.2,0.1,2.2,0.4,2.7c0.6,0.5,1,0.3,0.9,1.5
		c-0.1,1-0.6,1.5-1.5,1.8c-1.3,0.5-2,0.7-2.5,2.1c-0.2,0.4-0.3,1.1-0.3,2v0.1c-0.4,1-0.8,2-1.2,3.1c-1.6,1.6-2.5,5.4-4.1,7
		c-1.1,1.1-1.4,1.1-1.1,2.7c0.1,0.2,0.6,0.6,0.7,0.6C17.2,26.5,17.6,26.2,17.6,26.1">
  </path>
 </g>
</svg>